Coordinates
version=1
nRows=7
nColumns=42
inDegrees=yes

Units are S.I. units (second, meters, Newtons, ...)
If the header above contains a line with 'inDegrees', this indicates whether rotational values are in degrees (yes) or radians (no).

endheader
time	pelvis_tilt	pelvis_list	pelvis_rotation	pelvis_tx	pelvis_ty	pelvis_tz	hip_flexion_r	hip_adduction_r	hip_rotation_r	knee_angle_r	knee_adduction_r	knee_angle_r_beta	ankle_angle_r	subtalar_angle_r	mtp_angle_r	hip_flexion_l	hip_adduction_l	hip_rotation_l	knee_angle_l	knee_adduction_l	knee_angle_l_beta	ankle_angle_l	subtalar_angle_l	mtp_angle_l	lumbar_extension	lumbar_bending	lumbar_rotation	arm_flex_r	arm_add_r	arm_rot_r	elbow_flex_r	pro_sup_r	wrist_flex_r	wrist_dev_r	arm_flex_l	arm_add_l	arm_rot_l	elbow_flex_l	pro_sup_l	wrist_flex_l	wrist_dev_l
      1.20000000	     -2.09834808	      0.18430622	     -6.27038358	      0.00113176	      0.84468068	     -0.34993292	    -14.33283452	     -2.89910709	      4.37493090	     17.05572025	      9.78366678	      0.29767847	      6.65657908	     -1.27241762	     -7.54926066	     23.14221943	     -4.94596773	     -8.47901607	     11.71268242	     10.19371777	      0.20442487	      6.81484290	     -3.34169346	     -7.54926066	     -5.26775839	     -3.18909443	     12.70099251	     12.15737740	    -18.52099826	      8.73477072	     41.19037497	     90.00000001	      0.00000000	      0.00000000	     -5.96344588	    -11.77501172	    -22.08588449	     33.53353329	     90.00000001	      0.00000000	      0.00000000
      1.21000000	     -2.05704198	      0.61941944	     -6.26135660	      0.01424023	      0.84519899	     -0.35071620	    -13.70910003	     -3.60105090	      4.07110002	     19.83279502	     10.05751829	      0.34614757	      4.74799294	     -2.36134591	     -7.54790908	     22.68652386	     -4.23642762	     -7.84022427	     12.44445458	     10.19835442	      0.21719671	      6.42643281	     -3.86608155	     -7.54790908	     -5.14731675	     -3.73271096	     12.62846908	     11.76328670	    -18.29929282	      8.38879509	     41.06779766	     90.00000001	      0.00000000	      0.00000000	     -6.00902910	    -11.93647734	    -22.20016582	     33.34193033	     90.00000001	      0.00000000	      0.00000000
      1.22000000	     -1.88840849	      0.98209652	     -6.24196570	      0.02733858	      0.84600384	     -0.35145424	    -13.05610419	     -4.22454611	      3.61870702	     22.87841748	     10.26685320	      0.39930371	      2.45858723	     -3.49272695	     -7.54680430	     22.04257969	     -3.62131877	     -7.15418126	     13.17491138	     10.25524831	      0.22994558	      6.15562288	     -4.38722904	     -7.54680430	     -5.19283373	     -4.21156334	     12.52742593	     11.38551500	    -18.07706962	      8.07994946	     40.90753689	     90.00000001	      0.00000000	      0.00000000	     -5.99651711	    -12.09789382	    -22.24945753	     33.22231054	     90.00000001	      0.00000000	      0.00000000
      1.23000000	     -1.80735124	      1.43899166	     -6.18014417	      0.04045203	      0.84682437	     -0.35230894	    -12.09434761	     -4.90496262	      2.97905370	     26.25547711	     10.30607556	      0.45824452	      0.02950221	     -4.88909860	     -7.54567109	     21.42351188	     -2.91074258	     -6.39513903	     13.76446987	     10.35944598	      0.24023532	      5.79123546	     -5.04620247	     -7.54567109	     -5.13085215	     -4.76914575	     12.34366691	     10.93694784	    -17.81278312	      7.74283621	     40.69635337	     90.00000001	      0.00000000	      0.00000000	     -5.98110156	    -12.27313128	    -22.26642368	     33.08730445	     90.00000001	      0.00000000	      0.00000000
      1.24000000	     -2.12271289	      2.02489009	     -6.01412895	      0.05317654	      0.84729734	     -0.35349185	    -10.42029105	     -5.75824825	      2.30390948	     30.03445398	     10.46924447	      0.52420011	     -2.28094142	     -6.62982947	     -7.54244509	     21.09807727	     -2.00644861	     -4.67692384	     13.85902667	     10.57399388	      0.24188565	      4.51809538	     -7.74222636	     -7.54244509	     -4.64332990	     -5.40076164	     12.05619585	     10.44235035	    -17.48081917	      7.20140066	     40.36901021	     90.00000001	      0.00000000	      0.00000000	     -5.94361132	    -12.46694475	    -22.23867556	     32.88120789	     90.00000001	      0.00000000	      0.00000000
      1.25000000	     -1.81124893	      2.45141799	     -5.92361678	      0.06638446	      0.84856090	     -0.35419698	     -9.46066140	     -6.34083898	      1.42144826	     33.61535939	     10.08189682	      0.58669870	     -4.94349397	     -8.07062724	     -7.54137879	     20.01900522	     -1.37303536	     -4.02869922	     14.10411634	     10.77556140	      0.24616327	      4.51189259	     -8.00992941	     -7.54137879	     -4.84670308	     -5.95806304	     11.77468542	      9.97650395	    -17.21262473	      7.01739802	     40.09706752	     90.00000001	      0.00000000	      0.00000000	     -5.88235523	    -12.68661171	    -22.18528257	     32.83862544	     90.00000001	      0.00000000	      0.00000000
      1.26000000	     -1.71199079	      2.97266166	     -5.79638350	      0.07927458	      0.84960672	     -0.35520731	     -8.05510863	     -7.03610801	      0.56807745	     37.38122522	      9.63362691	      0.65242546	     -7.39982573	     -9.81323546	     -7.54037614	     19.13784747	     -0.62851874	     -3.32079888	     14.19229222	     10.95733054	      0.24770223	      4.46856399	     -8.43318552	     -7.54037614	     -4.84405843	     -6.55069573	     11.42818580	      9.51395785	    -16.93655272	      6.74760489	     39.74606853	     90.00000001	      0.00000000	      0.00000000	     -5.80459950	    -12.86932014	    -22.07104176	     32.78995003	     90.00000001	      0.00000000	      0.00000000
